<svg width="14" height="14" viewBox="0 0 14 14" fill="none" xmlns="http://www.w3.org/2000/svg">
<g clip-path="url(#clip0_23513_2371)">
<path fill-rule="evenodd" clip-rule="evenodd" d="M7.00026 2.12502C4.30774 2.12502 2.12502 4.30774 2.12502 7.00026C2.12502 9.69278 4.30774 11.8755 7.00026 11.8755C9.69278 11.8755 11.8755 9.69278 11.8755 7.00026C11.8755 4.30774 9.69278 2.12502 7.00026 2.12502ZM0.791687 7.00026C0.791687 3.57136 3.57136 0.791687 7.00026 0.791687C10.4292 0.791687 13.2088 3.57136 13.2088 7.00026C13.2088 10.4292 10.4292 13.2088 7.00026 13.2088C3.57136 13.2088 0.791687 10.4292 0.791687 7.00026ZM7.00007 6.33334C7.36826 6.33334 7.66674 6.63182 7.66674 7.00001V9.21677C7.66674 9.58496 7.36826 9.88344 7.00007 9.88344C6.63188 9.88344 6.33341 9.58496 6.33341 9.21677V7.00001C6.33341 6.63182 6.63188 6.33334 7.00007 6.33334ZM7.00007 4.11659C6.63188 4.11659 6.33341 4.41506 6.33341 4.78325C6.33341 5.15144 6.63188 5.44992 7.00007 5.44992H7.0059C7.37409 5.44992 7.67257 5.15144 7.67257 4.78325C7.67257 4.41506 7.37409 4.11659 7.0059 4.11659H7.00007Z" fill="#2D3440"/>
</g>
<defs>
<clipPath id="clip0_23513_2371">
<rect width="14" height="14" fill="white"/>
</clipPath>
</defs>
</svg>
